<svg width="32" height="32" viewBox="0 0 32 32" fill="none" xmlns="http://www.w3.org/2000/svg">
<rect width="32" height="32" rx="4" fill="white"/>
<path d="M5.55305 6.25417H5.21595C5.21595 6.25417 5.08945 6.25421 5.04727 6.33889C4.97121 6.49182 5.08957 6.76278 5.08957 6.76278L5.30029 7.27111L10.6111 18.7119L15.9187 6.51599C15.9073 6.40778 15.856 6.25417 15.6268 6.25417H15.079V6H17.6922V6.25417H17.06C16.8493 6.25417 16.8493 6.50858 16.8493 6.59333C16.8493 6.61362 16.8494 6.7318 16.8496 6.93354C16.8508 8.01699 16.8539 11.51 16.8546 15.1947C16.8668 15.1948 16.8791 15.1945 16.8913 15.1947C17.2513 15.2014 17.6038 15.2539 17.9452 15.3396V9.305C17.9452 9.22022 17.9451 8.96611 17.6501 8.96611H17.1021V8.71195H21.4856C21.8228 8.71195 27.1337 8.96092 27.1337 13.2458C27.1337 16.8909 22.7338 17.8168 22.0739 17.9352C22.8139 18.6774 23.9858 20.2298 25.3634 22.3558C26.9801 24.8508 28.0434 25.2365 28.726 25.484C28.7729 25.501 28.8184 25.5175 28.8618 25.5339C29.2172 25.6679 29.9978 25.8301 30 25.8305V25.9575C29.9965 25.9575 29.2311 25.9453 28.9041 25.9153C28.2718 25.8572 26.9652 25.2372 25.9115 24.2203C25.4375 23.7627 23.9782 21.8127 23.9725 21.805L22.4551 19.6442L21.1485 17.9914C21.1485 17.9914 20.0726 17.9998 18.8784 17.9647C18.8789 20.6682 18.8777 23.4687 18.8724 25.4916C18.8724 25.6047 18.9314 25.8305 19.1675 25.8305H19.7576V26H17.1864V25.8305H17.6922C17.8607 25.8305 17.9452 25.7033 17.9452 25.5339V17.9281C17.62 17.9114 17.3043 17.8906 17.0177 17.8644C16.9637 17.8595 16.9095 17.8539 16.8551 17.8481C16.8545 19.6682 16.8529 21.4038 16.8493 22.7797C16.8493 22.8927 16.9083 23.1186 17.1444 23.1186H17.7345V23.2881H15.1633V23.1186H15.6691C15.8376 23.1186 15.9218 22.9916 15.9218 22.8222V17.666C15.4314 17.5001 15.0694 17.2024 15.079 16.6356C15.0891 16.0281 15.4306 15.6054 15.9218 15.3813V7.46933L10.5267 20.1525C10.5267 20.1525 10.493 20.2289 10.4424 20.2797C10.4008 20.3214 10.278 20.3222 10.274 20.3222H10.1053C10.1053 20.3222 9.97877 20.3222 9.93662 20.2797C9.90097 20.244 9.89002 20.2179 9.8725 20.1768C9.8693 20.1693 9.8658 20.1612 9.86198 20.1525C8.70767 17.5312 7.79926 15.4578 6.89486 13.3936L6.89459 13.3931L5.49288 10.1958C5.315 9.79043 5.13257 9.37627 4.94507 8.94949V22.6087L4.94533 22.6108C4.94537 22.6132 4.94538 22.6176 4.94559 22.6235C4.94565 22.625 4.94578 22.6268 4.94586 22.6285H5.70385V23.6935H3V22.6285H3.88438C3.88446 22.6268 3.88459 22.625 3.88465 22.6235C3.88486 22.6176 3.88513 22.6132 3.88517 22.6108V6.56905H3.89884C3.8915 6.55202 3.88435 6.53528 3.87755 6.51916C3.84364 6.43874 3.81526 6.37162 3.7827 6.33889C3.69909 6.25497 3.53279 6.25418 3.52995 6.25417H3.10851V6H5.55305V6.25417ZM18.8784 17.6562C19.939 17.6948 20.8535 17.695 20.8535 17.695C20.8535 17.695 19.954 16.8606 18.8779 16.2175C18.8782 16.6894 18.8784 17.1707 18.8784 17.6562ZM19.0831 8.96611C18.8725 8.96616 18.8724 9.22022 18.8724 9.305C18.8724 9.325 18.8724 9.44332 18.8727 9.64549C18.8737 10.5045 18.8762 12.8785 18.8777 15.6616C20.1744 16.2274 21.2227 17.1636 21.7597 17.6433C21.7601 17.6436 21.7605 17.6442 21.761 17.6446C22.3121 17.5693 26.2062 16.9076 26.2063 13.2458C26.2063 9.30514 21.9492 8.96611 21.4856 8.96611H19.0831ZM16.8551 17.5248C17.0081 17.5417 17.1617 17.5551 17.3096 17.5675L17.3131 17.5678C17.5166 17.5848 17.7294 17.5996 17.9452 17.6124V15.7435C17.7173 15.6508 17.4903 15.5781 17.2707 15.5339C17.1269 15.505 16.9877 15.4862 16.8546 15.4771C16.8547 16.1597 16.8553 16.8469 16.8551 17.5248ZM15.9218 15.6276C15.5962 15.7916 15.3934 16.0849 15.374 16.5086C15.355 16.9263 15.583 17.1685 15.9218 17.3157V15.6276Z" fill="#573824"/>
</svg>
