<svg width="87" height="97" viewBox="0 0 87 97" fill="none" xmlns="http://www.w3.org/2000/svg">
<path d="M20.1081 0H17.6791C17.3692 0 17.0753 0.0651262 16.7905 0.157666C15.3677 0.619095 14.316 2.13807 14.316 3.96018V5.63222V9.91201V12.1387C14.316 12.5524 14.385 12.9433 14.485 13.3176C14.9131 14.9253 16.173 16.0988 17.6791 16.0988H20.1081C21.9659 16.0988 23.4713 14.326 23.4713 12.1387V9.91201V5.63222V3.96018C23.4713 1.77283 21.9659 0 20.1081 0Z" fill="#6F4735"/>
<path d="M67.9182 0H65.4892C63.6315 0 62.1261 1.77283 62.1261 3.96018V5.63222V9.91201V12.1387C62.1261 14.326 63.6315 16.0988 65.4892 16.0988H67.9182C69.776 16.0988 71.2813 14.326 71.2813 12.1387V9.91201V5.63222V3.96018C71.2805 1.77283 69.7752 0 67.9182 0Z" fill="#6F4735"/>
<path d="M80.3251 9.91211H74.311V12.1388C74.311 15.9936 71.4426 19.1294 67.9174 19.1294H65.4884C61.9632 19.1294 59.0948 15.9936 59.0948 12.1388V9.91211H26.5018V12.1388C26.5018 15.9936 23.6333 19.1294 20.1081 19.1294H17.6791C14.1538 19.1294 11.2855 15.9936 11.2855 12.1388V9.91211H6.04517C2.70709 9.91211 0 12.4501 0 15.5792V91.0555C0 94.1904 2.70693 96.7226 6.04517 96.7226H80.3243C83.6654 96.7226 86.3693 94.1898 86.3693 91.0555V15.58C86.3701 12.4509 83.6662 9.91211 80.3251 9.91211ZM78.4507 88.4037L7.69899 88.3765V27.5269H78.4507V88.4037Z" fill="#6F4735"/>
</svg>
