<svg width="534" height="534" viewBox="0 0 534 534" fill="none" xmlns="http://www.w3.org/2000/svg">
<path d="M459.627 284.747L290.601 453.773C284.339 460.024 275.852 463.534 267.004 463.534C258.156 463.534 249.669 460.024 243.407 453.773L70.046 280.412C58.0172 268.393 48.5649 254.048 42.2664 238.254C35.9679 222.459 32.9554 205.546 33.413 188.548C33.8705 171.55 37.7885 154.824 44.9276 139.391C52.0667 123.958 62.277 110.143 74.9349 98.7885C123.498 54.9512 202.699 59.0416 251.36 107.751L267.004 123.38L286.983 103.4C299.042 91.4595 313.378 82.0647 329.139 75.7741C344.901 69.4836 361.766 66.4258 378.732 66.7824C395.748 67.175 412.502 71.0605 427.954 78.1978C443.407 85.3351 457.227 95.572 468.558 108.273C512.33 156.869 508.321 236.037 459.627 284.747Z" fill="#F71A96"/>
</svg>
