<svg width="100" height="74" viewBox="0 0 100 74" fill="none" xmlns="http://www.w3.org/2000/svg">
<g clip-path="url(#clip0_25_103)">
<path fill-rule="evenodd" clip-rule="evenodd" d="M54.2152 73.373H52.335V74H61.8914V73.373H59.6983C58.8207 73.373 58.6018 72.5369 58.6018 72.1189C58.6213 64.6339 58.6261 54.2723 58.6245 44.2694C63.0628 44.3991 67.0612 44.3684 67.0612 44.3684L71.9183 50.4831L77.5575 58.4785C77.5575 58.4785 82.999 65.7191 84.7643 67.4155C88.6809 71.1783 93.5375 73.4717 95.8877 73.6865C97.106 73.7979 99.961 73.8432 99.961 73.8432V73.373C99.961 73.373 97.0533 72.7718 95.7305 72.2751C95.5691 72.2144 95.4009 72.1537 95.2263 72.0909H95.2257C92.6888 71.1751 88.7363 69.7484 82.7273 60.5169C77.6071 52.6505 73.2511 46.9066 70.5005 44.1605C72.9515 43.723 89.3075 40.2974 89.3075 26.8093C89.3075 10.9551 69.568 10.0339 68.3149 10.0339H61.7347H52.0217V10.9745H54.0586C55.1551 10.9745 55.1551 11.9152 55.1551 12.2287V34.5564C53.8861 34.2391 52.576 34.0458 51.2382 34.0209C47.6914 33.9552 44.5616 35.8022 44.502 39.3517C44.4428 42.8674 48.2617 43.5853 51.7082 43.898C52.7732 43.9947 53.9462 44.0719 55.1551 44.1334V72.2756C55.1551 72.9027 54.8418 73.373 54.2152 73.373ZM55.1551 42.966C54.3529 42.9187 53.5622 42.8641 52.8054 42.8009L52.7927 42.7999C49.4951 42.5249 45.4467 42.1872 45.5985 38.8814C45.7454 35.681 48.7318 34.4916 52.6485 35.2755C53.4647 35.4388 54.308 35.708 55.1551 36.0508V42.966ZM58.624 43.1283C62.5659 43.2713 65.9647 43.2713 65.9647 43.2713C65.9647 43.2713 62.6218 40.1843 58.6224 37.8048C58.6234 39.551 58.624 41.3319 58.624 43.1283ZM58.6213 35.7476C63.4415 37.841 67.3376 41.306 69.3333 43.0805C69.3349 43.0819 69.336 43.0832 69.3376 43.0846C71.385 42.8062 85.8608 40.3586 85.8608 26.8093C85.8608 12.2287 70.038 10.9745 68.3149 10.9745H61.7347L59.385 10.9745C58.6018 10.9745 58.6018 11.9152 58.6018 12.2287C58.6018 12.3027 58.6018 12.7403 58.6029 13.4883C58.6065 16.6668 58.616 25.4499 58.6213 35.7476Z" fill="#573824"/>
<path fill-rule="evenodd" clip-rule="evenodd" d="M27.8955 47.0339L47.623 1.90913C47.5806 1.50873 47.3907 0.940671 46.5385 0.940671H44.5019V0H54.2152V0.940671L51.865 0.940676C51.0818 0.940676 51.0818 1.88136 51.0818 2.19492C51.0818 2.26886 51.0822 2.70648 51.0831 3.45447C51.0885 8.33387 51.1088 26.4208 51.1043 42.9197C49.8837 42.7892 48.6698 42.5924 47.6351 42.2308V5.43663L27.5822 52.3644C27.5822 52.3644 27.457 52.6466 27.2689 52.8345C27.1122 52.9918 26.6422 52.9918 26.6422 52.9918H26.0156C26.0156 52.9918 25.5456 52.9918 25.3889 52.8345C25.2565 52.7023 25.2155 52.6064 25.1504 52.4543C25.1385 52.4264 25.1257 52.3966 25.1114 52.3644C20.8209 42.6653 17.4444 34.9937 14.0828 27.356L14.0822 27.3549L14.0819 27.354C10.6789 19.6224 7.29119 11.9254 2.98601 2.19492C2.94435 2.10076 2.90544 2.00892 2.86835 1.92135C2.74222 1.6236 2.63708 1.37539 2.51602 1.25424C2.20269 0.940676 1.57603 0.940676 1.57603 0.940676H0.00939941V0H9.09589V0.940676H7.84256C7.84256 0.940676 7.37257 0.940676 7.21593 1.25424C6.93323 1.82008 7.37257 2.82203 7.37257 2.82203L8.15591 4.70339L27.8955 47.0339ZM47.6351 42.8433V62.2418C47.6351 62.8689 47.3218 63.3391 46.6952 63.3391H44.8152V63.9662H54.3718V63.3391H52.1784C51.3011 63.3391 51.0818 62.5031 51.0818 62.0851C51.0955 56.9098 51.102 50.3596 51.1041 43.5036C49.9238 43.3797 48.7084 43.1924 47.6351 42.8433Z" fill="#573824"/>
<path d="M8.15591 63.9662H1.10605V63.0256H3.456C3.456 63.0256 4.08266 63.0256 4.23932 62.5553C4.39598 62.0851 4.39598 61.4575 4.39598 61.4575V3.60594H5.33597V61.4575C5.33597 61.4575 5.33597 62.0851 5.49262 62.5553C5.64927 63.0256 6.27595 63.0256 6.27595 63.0256H8.15591V63.9662Z" fill="#573824" stroke="#573824" stroke-width="3"/>
</g>
<defs>
<clipPath id="clip0_25_103">
<rect width="100" height="74" fill="white"/>
</clipPath>
</defs>
</svg>
